<svg width="772" height="220" viewBox="0 0 772 220" fill="none" xmlns="http://www.w3.org/2000/svg">
<g clip-path="url(#clip0_64_2)">
<path d="M3.43381 64.825H36.3628V214.659H3.25981C3.25981 214.659 3.08581 64.825 3.43381 64.825Z" fill="#48374A"/>
<path d="M110.757 68.31C110.757 68.31 126.786 60.296 136.891 60.993C136.891 60.993 153.268 62.213 160.063 66.046C166.858 69.879 176.963 76.848 181.319 84.34C185.675 91.832 187.94 96.013 189.333 104.724C189.333 104.724 190.553 112.041 191.075 116.049C191.597 120.057 191.075 215.009 191.075 215.009H158.495V117.791C158.495 117.791 158.395 110.96 156.957 108.963C155.519 106.966 156.238 102.972 150.486 98.658C144.734 94.344 146.092 93.625 136.586 91.309C136.586 91.309 127.559 89.392 116.695 94.265C116.695 94.265 109.985 97.46 104.313 104.17C104.313 104.17 95.4462 119.747 95.1262 128.934V214.808H62.7732C62.7732 214.808 61.9722 64.002 61.9722 63.956L94.7262 64.304V80.507C94.7262 80.507 95.5972 80.681 97.1652 79.636C97.1652 79.636 106.225 69.531 111.626 68.311" fill="#48374A"/>
<path d="M220.33 9.173H252.486V63.783H293.513L293.79 90.395L253.041 90.949V163.577C253.041 163.577 254.427 180.764 272.445 189.08H294.067V217.909H270.227C270.227 217.909 244.783 214.241 236.551 202.677C236.551 202.677 226.358 193.856 222.83 180.723C222.83 180.723 220.086 173.274 219.89 167.982C219.694 162.69 219.89 90.36 219.89 90.36H197.152V63.898H219.694C219.694 63.898 220.668 8.835 220.331 9.172L220.33 9.173Z" fill="#473649"/>
<path d="M359.06 190.916C342.791 187.78 333.578 169.942 333.578 169.942C329.854 165.434 329.07 147.988 329.07 147.988H431.978L431.39 116.43C428.842 85.264 404.928 72.523 404.928 72.523C358.669 44.101 323.19 78.403 323.19 78.403C306.529 94.084 301.628 111.333 299.276 119.566C296.924 127.799 296.336 148.38 298.688 161.121C301.04 173.862 307.313 184.643 307.313 184.643C316.918 205.617 344.164 215.613 344.164 215.613C371.214 225.218 400.224 214.633 400.224 214.633C405.124 214.829 423.55 205.42 423.55 205.42V175.626C417.082 181.31 410.221 184.055 393.952 189.935C377.683 195.815 359.061 190.915 359.061 190.915L359.06 190.916ZM342.007 99.769C362.785 80.168 383.366 92.908 383.366 92.908C399.243 99.18 401.791 123.682 401.791 123.682L331.422 123.486C331.814 109.961 342.007 99.769 342.007 99.769Z" fill="#473649"/>
<path d="M449.091 2.247H481.289V214.518H449.091C449.091 214.518 448.793 1.949 449.091 2.247Z" fill="#473649"/>
<path d="M503.053 2.84299L536.146 2.24699V214.816H503.649C503.649 214.816 502.606 2.39599 503.053 2.84299Z" fill="#473649"/>
<path d="M562.68 64.855H596.369V215.114H563.276C563.276 215.114 563.574 64.855 562.68 64.855Z" fill="#473649"/>
<path d="M769.329 122.507C758.67 83.202 732.023 71.877 732.023 71.877C691.386 46.784 650.749 72.987 650.749 72.987C629.431 84.756 620.104 111.404 620.104 111.404C616.995 114.513 607.224 150.709 624.323 181.575C641.422 212.442 677.174 218.215 677.174 218.215C721.808 226.209 745.569 199.118 749.122 196.675C752.675 194.232 779.988 161.811 769.33 122.506L769.329 122.507ZM732.616 167.115C717.113 190.071 688.79 198.717 662.257 178.742C662.257 178.742 650.332 171.587 645.561 145.649C645.561 145.649 640.493 112.258 674.48 94.966C674.48 94.966 712.939 80.357 733.809 116.133C733.809 116.133 748.12 144.158 732.616 167.114V167.115Z" fill="#473649"/>
<path d="M19.82 39.64C30.7663 39.64 39.64 30.7663 39.64 19.82C39.64 8.87372 30.7663 0 19.82 0C8.87372 0 0 8.87372 0 19.82C0 30.7663 8.87372 39.64 19.82 39.64Z" fill="#453446"/>
<path d="M580.972 40.64C591.919 40.64 600.792 31.7663 600.792 20.82C600.792 9.87372 591.919 1 580.972 1C570.026 1 561.152 9.87372 561.152 20.82C561.152 31.7663 570.026 40.64 580.972 40.64Z" fill="#CB55CD"/>
</g>
<defs>
<clipPath id="clip0_64_2">
<rect width="771.782" height="219.686" fill="white"/>
</clipPath>
</defs>
</svg>
